<svg width="100" height="96" viewBox="0 0 100 96" fill="none" xmlns="http://www.w3.org/2000/svg">
<path d="M34.0647 4.01566C34.0647 4.01566 35.0675 3.13723 36.9478 2.25881C39.9563 0.752924 43.2154 0 46.4745 0H85.8351C88.2169 0.25098 90.4734 0.878416 92.7299 2.25881C97.3676 5.14507 100 10.1647 100 15.3098C100 18.0705 99.2483 20.8313 97.7442 23.4666C95.1118 27.7332 90.724 30.2431 86.0863 30.6196H44.5943C39.9562 30.6196 40.3323 34.1333 40.3323 34.1333V36.0156V37.396C40.3323 38.7764 41.7112 39.9058 43.4661 39.9058C49.483 39.9058 61.893 39.9058 62.0183 39.9058H84.8328C87.4652 39.9058 90.2228 40.6588 92.7299 42.1646C97.2423 44.9254 99.7494 49.5686 100 54.4626V55.3411C100 58.1019 99.2483 60.8626 97.7442 63.4979C96.3653 65.7567 94.4846 67.5136 92.2281 68.7686C92.1028 68.8941 91.9775 68.8941 91.8523 69.0195C91.727 69.1449 91.6017 69.1449 91.4764 69.2703C91.3511 69.3958 91.2258 69.3958 91.0999 69.5212C90.9746 69.6466 90.8493 69.6473 90.724 69.6473C90.5987 69.6473 90.3481 69.7727 90.2228 69.8981C90.0976 69.8981 89.9723 70.0236 89.847 70.0236C89.721 70.0236 89.4704 70.149 89.3452 70.149C89.2199 70.149 89.0946 70.2744 88.9693 70.2744C88.844 70.2744 88.7187 70.3998 88.4675 70.3998C88.3422 70.3998 88.2169 70.5253 87.9663 70.5253C87.841 70.5253 87.5905 70.6507 87.4652 70.6507C87.3399 70.6507 87.2139 70.6507 87.0886 70.6507C86.4622 70.7761 85.8351 70.7761 85.2086 70.7761H66.6564C64.9014 70.7761 63.5225 71.9056 63.5225 73.2859V79.3097C63.6479 80.1884 63.6479 80.9409 63.5225 81.8196C63.2718 84.204 62.6451 86.4623 61.2662 88.7213C58.3831 93.3647 53.369 96 48.2295 96H39.3295C38.3267 96 37.1985 95.8746 36.1957 95.6237C35.8196 95.4976 35.5688 95.4976 35.1928 95.3722C35.0675 95.3722 34.8168 95.2468 34.6914 95.2468C34.19 95.1213 33.6886 94.8705 33.1872 94.6197C33.0619 94.4942 32.8111 94.4942 32.6857 94.3688C32.1843 94.1173 31.6829 93.8664 31.3069 93.6156C26.9195 90.8549 24.4125 86.3369 24.0364 81.5687V79.1843C24.2871 76.7999 24.9139 74.5409 26.2927 72.408C29.0506 68.0155 33.5633 65.5058 38.452 65.1293H48.4803C50.2352 65.1293 51.6141 63.9999 51.6141 62.6195V58.9803C51.6141 57.5999 50.2352 56.4705 48.4803 56.4705C42.4633 56.4705 30.0534 56.4705 29.928 56.4705H17.7688C17.2674 56.4705 16.8913 56.4705 16.3899 56.4705C13.5068 56.345 10.7491 55.5921 8.11659 53.9607C3.35322 50.9489 0.595426 45.9294 0.0940144 40.6588C-0.0313381 39.7803 -0.0313381 38.9019 0.0940144 38.0235C0.34472 35.2627 1.22224 32.3764 2.72647 29.8666C3.72929 28.2352 4.98277 26.8549 6.36165 25.5999C6.73771 25.2235 7.23911 24.9725 7.61517 24.596L34.0647 4.01566Z" fill="#A380FF"/>
</svg>
